<svg width="20" height="21" viewBox="0 0 20 21" fill="none" xmlns="http://www.w3.org/2000/svg">
<path d="M10.0645 20.7967C4.72044 20.7967 0.388214 16.1442 0.388214 10.4052C0.388214 4.66608 4.72044 0.0136414 10.0645 0.0136414C15.4086 0.0136414 19.7408 4.66608 19.7408 10.4052C19.735 16.1416 15.4062 20.7904 10.0645 20.7967ZM10.0645 2.09195C5.81217 2.0931 2.35682 5.77768 2.32564 10.3442C2.29446 14.9107 5.69913 18.6493 9.95101 18.7175C14.2029 18.7856 17.7099 15.1577 17.8056 10.5922V12.445V10.4052C17.8008 5.81604 14.3378 2.0971 10.0645 2.09195ZM11.4676 15.497L6.67781 10.3532L11.4676 5.2094L12.8358 6.67876L9.41427 10.3532L12.8348 14.0277L11.4685 15.497H11.4676Z" fill="#E59B9C"/>
</svg>
