<svg width="20" height="21" viewBox="0 0 20 21" fill="none" xmlns="http://www.w3.org/2000/svg">
<path d="M10.1216 20.7967C4.77994 20.7904 0.451148 16.1416 0.445282 10.4052V10.1973C0.551655 4.48669 4.92985 -0.0612348 10.248 0.0145442C15.5662 0.0903233 19.8305 4.7614 19.7957 10.473C19.761 16.1847 15.4402 20.7955 10.1216 20.7967ZM10.1216 2.09193C5.84633 2.09193 2.38054 5.81389 2.38054 10.4052C2.38054 14.9964 5.84633 18.7184 10.1216 18.7184C14.3968 18.7184 17.8626 14.9964 17.8626 10.4052C17.8578 5.81603 14.3949 2.09709 10.1216 2.09193ZM8.71852 15.6009L7.35029 14.1305L10.7709 10.4571L7.35029 6.78371L8.71852 5.31331L13.5083 10.4571L8.71949 15.6009H8.71852Z" fill="#E59B9C"/>
</svg>
